<mxfile host="65bd71144e">
    <diagram id="bWB9aSFQ_07Y3bA2QbNe" name="Page-1">
        <mxGraphModel dx="10507" dy="5320" grid="0" gridSize="10" guides="1" tooltips="0" connect="1" arrows="1" fold="1" page="0" pageScale="1" pageWidth="850" pageHeight="1100" math="0" shadow="0">
            <root>
                <mxCell id="0"/>
                <mxCell id="1" parent="0"/>
                <mxCell id="210" value="opt" style="shape=umlFrame;whiteSpace=wrap;html=1;" vertex="1" parent="1">
                    <mxGeometry x="962" y="2128" width="590" height="182" as="geometry"/>
                </mxCell>
                <mxCell id="203" value="onClick()" style="html=1;verticalAlign=bottom;endArrow=block;" edge="1" parent="1" source="199" target="202">
                    <mxGeometry x="0.3444" width="80" relative="1" as="geometry">
                        <mxPoint x="800" y="2177" as="sourcePoint"/>
                        <mxPoint x="878" y="2081" as="targetPoint"/>
                        <mxPoint as="offset"/>
                    </mxGeometry>
                </mxCell>
                <mxCell id="200" value="onCreate()" style="html=1;verticalAlign=bottom;endArrow=block;" edge="1" parent="1" source="195" target="199">
                    <mxGeometry width="80" relative="1" as="geometry">
                        <mxPoint x="-379.0550000000003" y="1165.6599999999999" as="sourcePoint"/>
                        <mxPoint x="-217" y="1165.6599999999999" as="targetPoint"/>
                    </mxGeometry>
                </mxCell>
                <mxCell id="67" value="dispensaController: DispensaController" style="shape=umlLifeline;perimeter=lifelinePerimeter;whiteSpace=wrap;html=1;container=1;collapsible=0;recursiveResize=0;outlineConnect=0;" vertex="1" parent="1">
                    <mxGeometry x="-805" y="526" width="166" height="235" as="geometry"/>
                </mxCell>
                <mxCell id="68" value="" style="html=1;points=[];perimeter=orthogonalPerimeter;" vertex="1" parent="67">
                    <mxGeometry x="77.5" y="85" width="10" height="77" as="geometry"/>
                </mxCell>
                <mxCell id="70" value="" style="html=1;points=[];perimeter=orthogonalPerimeter;" vertex="1" parent="67">
                    <mxGeometry x="83" y="105" width="10" height="47" as="geometry"/>
                </mxCell>
                <mxCell id="71" value="serverRequest()" style="edgeStyle=orthogonalEdgeStyle;html=1;align=left;spacingLeft=2;endArrow=block;rounded=0;" edge="1" parent="67" source="68" target="70">
                    <mxGeometry relative="1" as="geometry">
                        <mxPoint x="129" y="132" as="sourcePoint"/>
                        <Array as="points">
                            <mxPoint x="121" y="92"/>
                            <mxPoint x="121" y="116"/>
                        </Array>
                        <mxPoint x="134" y="152" as="targetPoint"/>
                    </mxGeometry>
                </mxCell>
                <mxCell id="78" value="&amp;lt;&amp;lt;CREATE&amp;gt;&amp;gt;" style="html=1;verticalAlign=bottom;endArrow=block;" edge="1" parent="67" source="70">
                    <mxGeometry width="80" relative="1" as="geometry">
                        <mxPoint x="112" y="148.20000000000005" as="sourcePoint"/>
                        <mxPoint x="195" y="145" as="targetPoint"/>
                    </mxGeometry>
                </mxCell>
                <mxCell id="79" value="loop" style="shape=umlFrame;whiteSpace=wrap;html=1;" vertex="1" parent="67">
                    <mxGeometry x="-30" y="126" width="412" height="78" as="geometry"/>
                </mxCell>
                <mxCell id="81" value="&lt;font style=&quot;font-size: 8px;&quot;&gt;[for each prodotto in json]&lt;/font&gt;" style="text;html=1;align=center;verticalAlign=middle;resizable=0;points=[];autosize=1;strokeColor=none;fillColor=none;" vertex="1" parent="67">
                    <mxGeometry x="-30.5" y="158" width="108" height="26" as="geometry"/>
                </mxCell>
                <mxCell id="116" value="onClick()" style="html=1;verticalAlign=bottom;endArrow=block;" edge="1" parent="1" target="122">
                    <mxGeometry width="80" relative="1" as="geometry">
                        <mxPoint x="-1642" y="1248" as="sourcePoint"/>
                        <mxPoint x="18.5" y="1317" as="targetPoint"/>
                    </mxGeometry>
                </mxCell>
                <mxCell id="102" value="onClick()" style="html=1;verticalAlign=bottom;endArrow=block;entryX=-0.15;entryY=0.065;entryDx=0;entryDy=0;entryPerimeter=0;" edge="1" parent="1" target="104">
                    <mxGeometry width="80" relative="1" as="geometry">
                        <mxPoint x="-1645" y="1129" as="sourcePoint"/>
                        <mxPoint x="-827" y="1129" as="targetPoint"/>
                    </mxGeometry>
                </mxCell>
                <mxCell id="99" value="onNavigationItemSelected()" style="html=1;verticalAlign=bottom;endArrow=block;entryX=0.166;entryY=0.025;entryDx=0;entryDy=0;entryPerimeter=0;" edge="1" parent="1" source="33" target="42">
                    <mxGeometry width="80" relative="1" as="geometry">
                        <mxPoint x="-1629.2400000000002" y="478.27600000000007" as="sourcePoint"/>
                        <mxPoint x="-1541" y="478" as="targetPoint"/>
                    </mxGeometry>
                </mxCell>
                <mxCell id="48" value="onCretateView()" style="html=1;verticalAlign=bottom;endArrow=block;entryX=0.035;entryY=0.06;entryDx=0;entryDy=0;entryPerimeter=0;" edge="1" parent="1" source="39" target="50">
                    <mxGeometry width="80" relative="1" as="geometry">
                        <mxPoint x="-1358" y="543.0000000000005" as="sourcePoint"/>
                        <mxPoint x="-1278" y="543.0000000000005" as="targetPoint"/>
                    </mxGeometry>
                </mxCell>
                <mxCell id="8" value="&lt;b style=&quot;border-color: var(--border-color); color: rgb(0, 0, 0); font-family: Helvetica; font-size: 12px; font-style: normal; font-variant-ligatures: normal; font-variant-caps: normal; letter-spacing: normal; orphans: 2; text-align: left; text-indent: 0px; text-transform: none; widows: 2; word-spacing: 0px; -webkit-text-stroke-width: 0px; background-color: rgb(251, 251, 251); text-decoration-thickness: initial; text-decoration-style: initial; text-decoration-color: initial;&quot;&gt;&lt;span style=&quot;border-color: var(--border-color);&quot;&gt;Aggiungi un nuovo alimento in dispensa e modifica la sua quantitÃ &lt;/span&gt;&lt;/b&gt;&lt;span style=&quot;border-color: var(--border-color); color: rgb(0, 0, 0); font-family: Helvetica; font-size: 12px; font-style: normal; font-variant-ligatures: normal; font-variant-caps: normal; font-weight: 400; letter-spacing: normal; orphans: 2; text-align: left; text-indent: 0px; text-transform: none; widows: 2; word-spacing: 0px; -webkit-text-stroke-width: 0px; background-color: rgb(251, 251, 251); text-decoration-thickness: initial; text-decoration-style: initial; text-decoration-color: initial;&quot;&gt;&amp;nbsp;&lt;/span&gt;" style="text;whiteSpace=wrap;html=1;" parent="1" vertex="1">
                    <mxGeometry x="-1629" y="188" width="1017" height="50" as="geometry"/>
                </mxCell>
                <mxCell id="9" value="&lt;b style=&quot;border-color: var(--border-color); color: rgb(0, 0, 0); font-family: Helvetica; font-size: 12px; font-style: normal; font-variant-ligatures: normal; font-variant-caps: normal; letter-spacing: normal; orphans: 2; text-align: left; text-indent: 0px; text-transform: none; widows: 2; word-spacing: 0px; -webkit-text-stroke-width: 0px; background-color: rgb(251, 251, 251); text-decoration-thickness: initial; text-decoration-style: initial; text-decoration-color: initial;&quot;&gt;&lt;span style=&quot;border-color: var(--border-color);&quot;&gt;Crea e visualizza piatto creato in una nuova categoria con aggiunta di una seconda lingua&lt;/span&gt;&lt;/b&gt;" style="text;whiteSpace=wrap;html=1;" parent="1" vertex="1">
                    <mxGeometry x="2439" y="411" width="625" height="50" as="geometry"/>
                </mxCell>
                <mxCell id="13" value="" style="shape=umlLifeline;participant=umlActor;perimeter=lifelinePerimeter;whiteSpace=wrap;html=1;container=1;collapsible=0;recursiveResize=0;verticalAlign=top;spacingTop=36;outlineConnect=0;" vertex="1" parent="1">
                    <mxGeometry x="2436" y="520" width="20" height="1130" as="geometry"/>
                </mxCell>
                <mxCell id="14" value="" style="html=1;points=[];perimeter=orthogonalPerimeter;" vertex="1" parent="13">
                    <mxGeometry x="5" y="50" width="10" height="1030" as="geometry"/>
                </mxCell>
                <mxCell id="15" value="sideBar :SideBarController" style="shape=umlLifeline;perimeter=lifelinePerimeter;whiteSpace=wrap;html=1;container=1;collapsible=0;recursiveResize=0;outlineConnect=0;" vertex="1" parent="1">
                    <mxGeometry x="2536" y="560" width="100" height="151" as="geometry"/>
                </mxCell>
                <mxCell id="24" value="" style="html=1;points=[];perimeter=orthogonalPerimeter;" vertex="1" parent="15">
                    <mxGeometry x="45" y="70" width="10" height="65" as="geometry"/>
                </mxCell>
                <mxCell id="37" value="" style="html=1;points=[];perimeter=orthogonalPerimeter;" vertex="1" parent="15">
                    <mxGeometry x="50" y="97" width="9" height="16" as="geometry"/>
                </mxCell>
                <mxCell id="38" value="changeScene()" style="edgeStyle=orthogonalEdgeStyle;html=1;align=left;spacingLeft=2;endArrow=block;rounded=0;entryX=1;entryY=0;" edge="1" parent="15" source="24" target="37">
                    <mxGeometry x="-0.4" y="12" relative="1" as="geometry">
                        <mxPoint x="74" y="89" as="sourcePoint"/>
                        <Array as="points">
                            <mxPoint x="95" y="85"/>
                            <mxPoint x="95" y="97"/>
                        </Array>
                        <mxPoint as="offset"/>
                    </mxGeometry>
                </mxCell>
                <mxCell id="20" value="&amp;lt;&amp;lt;create&amp;gt;&amp;gt;" style="html=1;verticalAlign=bottom;endArrow=block;" edge="1" parent="1" source="14">
                    <mxGeometry width="80" relative="1" as="geometry">
                        <mxPoint x="2456" y="580" as="sourcePoint"/>
                        <mxPoint x="2536" y="580" as="targetPoint"/>
                    </mxGeometry>
                </mxCell>
                <mxCell id="23" value="goToMenu()" style="html=1;verticalAlign=bottom;endArrow=block;entryX=-0.156;entryY=0.013;entryDx=0;entryDy=0;entryPerimeter=0;" edge="1" parent="1" source="14" target="24">
                    <mxGeometry width="80" relative="1" as="geometry">
                        <mxPoint x="2476" y="640" as="sourcePoint"/>
                        <mxPoint x="2561" y="640" as="targetPoint"/>
                    </mxGeometry>
                </mxCell>
                <mxCell id="25" value="MenuController" style="shape=umlLifeline;perimeter=lifelinePerimeter;whiteSpace=wrap;html=1;container=1;collapsible=0;recursiveResize=0;outlineConnect=0;" vertex="1" parent="1">
                    <mxGeometry x="2694" y="560" width="110" height="561" as="geometry"/>
                </mxCell>
                <mxCell id="35" value="" style="html=1;points=[];perimeter=orthogonalPerimeter;" vertex="1" parent="25">
                    <mxGeometry x="50" y="116" width="10" height="153" as="geometry"/>
                </mxCell>
                <mxCell id="46" value="" style="html=1;points=[];perimeter=orthogonalPerimeter;" vertex="1" parent="25">
                    <mxGeometry x="56" y="147" width="9" height="16" as="geometry"/>
                </mxCell>
                <mxCell id="47" value="initialize()&lt;span style=&quot;color: rgba(0, 0, 0, 0); font-family: monospace; font-size: 0px;&quot;&gt;%3CmxGraphModel%3E%3Croot%3E%3CmxCell%20id%3D%220%22%2F%3E%3CmxCell%20id%3D%221%22%20parent%3D%220%22%2F%3E%3CmxCell%20id%3D%222%22%20value%3D%22%22%20style%3D%22html%3D1%3Bpoints%3D%5B%5D%3Bperimeter%3DorthogonalPerimeter%3B%22%20vertex%3D%221%22%20parent%3D%221%22%3E%3CmxGeometry%20x%3D%22191%22%20y%3D%22657%22%20width%3D%2218%22%20height%3D%2216%22%20as%3D%22geometry%22%2F%3E%3C%2FmxCell%3E%3CmxCell%20id%3D%223%22%20value%3D%22changeScene()%22%20style%3D%22edgeStyle%3DorthogonalEdgeStyle%3Bhtml%3D1%3Balign%3Dleft%3BspacingLeft%3D2%3BendArrow%3Dblock%3Brounded%3D0%3BentryX%3D1%3BentryY%3D0%3B%22%20edge%3D%221%22%20target%3D%222%22%20parent%3D%221%22%3E%3CmxGeometry%20x%3D%22-0.4%22%20y%3D%2212%22%20relative%3D%221%22%20as%3D%22geometry%22%3E%3CmxPoint%20x%3D%22205%22%20y%3D%22644.9999999999998%22%20as%3D%22sourcePoint%22%2F%3E%3CArray%20as%3D%22points%22%3E%3CmxPoint%20x%3D%22245%22%20y%3D%22645%22%2F%3E%3CmxPoint%20x%3D%22245%22%20y%3D%22657%22%2F%3E%3C%2FArray%3E%3CmxPoint%20as%3D%22offset%22%2F%3E%3C%2FmxGeometry%3E%3C%2FmxCell%3E%3C%2Froot%3E%3C%2FmxGraphModel%3E&lt;/span&gt;&lt;span style=&quot;color: rgba(0, 0, 0, 0); font-family: monospace; font-size: 0px;&quot;&gt;%3CmxGraphModel%3E%3Croot%3E%3CmxCell%20id%3D%220%22%2F%3E%3CmxCell%20id%3D%221%22%20parent%3D%220%22%2F%3E%3CmxCell%20id%3D%222%22%20value%3D%22%22%20style%3D%22html%3D1%3Bpoints%3D%5B%5D%3Bperimeter%3DorthogonalPerimeter%3B%22%20vertex%3D%221%22%20parent%3D%221%22%3E%3CmxGeometry%20x%3D%22191%22%20y%3D%22657%22%20width%3D%2218%22%20height%3D%2216%22%20as%3D%22geometry%22%2F%3E%3C%2FmxCell%3E%3CmxCell%20id%3D%223%22%20value%3D%22changeScene()%22%20style%3D%22edgeStyle%3DorthogonalEdgeStyle%3Bhtml%3D1%3Balign%3Dleft%3BspacingLeft%3D2%3BendArrow%3Dblock%3Brounded%3D0%3BentryX%3D1%3BentryY%3D0%3B%22%20edge%3D%221%22%20target%3D%222%22%20parent%3D%221%22%3E%3CmxGeometry%20x%3D%22-0.4%22%20y%3D%2212%22%20relative%3D%221%22%20as%3D%22geometry%22%3E%3CmxPoint%20x%3D%22205%22%20y%3D%22644.9999999999998%22%20as%3D%22sourcePoint%22%2F%3E%3CArray%20as%3D%22points%22%3E%3CmxPoint%20x%3D%22245%22%20y%3D%22645%22%2F%3E%3CmxPoint%20x%3D%22245%22%20y%3D%22657%22%2F%3E%3C%2FArray%3E%3CmxPoint%20as%3D%22offset%22%2F%3E%3C%2FmxGeometry%3E%3C%2FmxCell%3E%3C%2Froot%3E%3C%2FmxGraphModel%3&lt;/span&gt;" style="edgeStyle=orthogonalEdgeStyle;html=1;align=left;spacingLeft=2;endArrow=block;rounded=0;entryX=1;entryY=0;" edge="1" parent="25" source="35" target="46">
                    <mxGeometry x="-0.4" y="12" relative="1" as="geometry">
                        <mxPoint x="55" y="134.99999999999977" as="sourcePoint"/>
                        <Array as="points">
                            <mxPoint x="95" y="135"/>
                            <mxPoint x="95" y="147"/>
                        </Array>
                        <mxPoint as="offset"/>
                    </mxGeometry>
                </mxCell>
                <mxCell id="100" value="&lt;font style=&quot;font-size: 8px;&quot;&gt;[for each categoria in listaCategorie]&lt;/font&gt;" style="text;html=1;align=center;verticalAlign=middle;resizable=0;points=[];autosize=1;strokeColor=none;fillColor=none;" vertex="1" parent="25">
                    <mxGeometry x="-9" y="313" width="146" height="26" as="geometry"/>
                </mxCell>
                <mxCell id="26" value="" style="html=1;points=[];perimeter=orthogonalPerimeter;" vertex="1" parent="1">
                    <mxGeometry x="-1836" y="416" width="10" height="40" as="geometry"/>
                </mxCell>
                <mxCell id="27" value="self call" style="edgeStyle=orthogonalEdgeStyle;html=1;align=left;spacingLeft=2;endArrow=block;rounded=0;entryX=1;entryY=0;" edge="1" parent="1" target="26">
                    <mxGeometry relative="1" as="geometry">
                        <mxPoint x="-1831" y="396" as="sourcePoint"/>
                        <Array as="points">
                            <mxPoint x="-1801" y="396"/>
                        </Array>
                    </mxGeometry>
                </mxCell>
                <mxCell id="28" value="return" style="html=1;verticalAlign=bottom;endArrow=open;dashed=1;endSize=8;" edge="1" parent="1">
                    <mxGeometry relative="1" as="geometry">
                        <mxPoint x="-1836" y="580" as="sourcePoint"/>
                        <mxPoint x="-1916" y="580" as="targetPoint"/>
                    </mxGeometry>
                </mxCell>
                <mxCell id="29" value="dispatch" style="html=1;verticalAlign=bottom;endArrow=block;" edge="1" parent="1">
                    <mxGeometry width="80" relative="1" as="geometry">
                        <mxPoint x="-1918" y="632.0000000000005" as="sourcePoint"/>
                        <mxPoint x="-1838" y="632.0000000000005" as="targetPoint"/>
                    </mxGeometry>
                </mxCell>
                <mxCell id="30" value="sideBar :SideBarController" style="shape=umlLifeline;perimeter=lifelinePerimeter;whiteSpace=wrap;html=1;container=1;collapsible=0;recursiveResize=0;outlineConnect=0;" vertex="1" parent="1">
                    <mxGeometry x="-2024" y="393" width="100" height="300" as="geometry"/>
                </mxCell>
                <mxCell id="31" value="" style="html=1;points=[];perimeter=orthogonalPerimeter;" vertex="1" parent="1">
                    <mxGeometry x="-1805" y="529" width="10" height="219" as="geometry"/>
                </mxCell>
                <mxCell id="33" value="" style="shape=umlLifeline;participant=umlActor;perimeter=lifelinePerimeter;whiteSpace=wrap;html=1;container=1;collapsible=0;recursiveResize=0;verticalAlign=top;spacingTop=36;outlineConnect=0;" vertex="1" parent="1">
                    <mxGeometry x="-1654" y="395" width="20" height="1919" as="geometry"/>
                </mxCell>
                <mxCell id="34" value="" style="html=1;points=[];perimeter=orthogonalPerimeter;" vertex="1" parent="33">
                    <mxGeometry x="5" y="61" width="10" height="1858" as="geometry"/>
                </mxCell>
                <mxCell id="39" value="onItemSelectedListener : NavigationBarView.OnItemSelectedListener" style="shape=umlLifeline;perimeter=lifelinePerimeter;whiteSpace=wrap;html=1;container=1;collapsible=0;recursiveResize=0;outlineConnect=0;" vertex="1" parent="1">
                    <mxGeometry x="-1537" y="445" width="247" height="1418" as="geometry"/>
                </mxCell>
                <mxCell id="42" value="" style="html=1;points=[];perimeter=orthogonalPerimeter;" vertex="1" parent="39">
                    <mxGeometry x="118.5" y="77" width="10" height="46" as="geometry"/>
                </mxCell>
                <mxCell id="36" value="goToMenu()" style="html=1;verticalAlign=bottom;endArrow=block;" edge="1" parent="1" source="24" target="35">
                    <mxGeometry width="80" relative="1" as="geometry">
                        <mxPoint x="2602" y="719.0000000000001" as="sourcePoint"/>
                        <mxPoint x="2730.44" y="719.0000000000001" as="targetPoint"/>
                    </mxGeometry>
                </mxCell>
                <mxCell id="41" value="ModificaCreaPiattoController" style="shape=umlLifeline;perimeter=lifelinePerimeter;whiteSpace=wrap;html=1;container=1;collapsible=0;recursiveResize=0;outlineConnect=0;" vertex="1" parent="1">
                    <mxGeometry x="2830" y="560" width="179" height="935" as="geometry"/>
                </mxCell>
                <mxCell id="57" value="fillComboBoxCategorie(comboBox: ComboBox, listaCategoria: ArrayList&amp;lt;Categoria&amp;gt;)" style="edgeStyle=orthogonalEdgeStyle;html=1;align=left;spacingLeft=2;endArrow=block;rounded=0;entryX=1;entryY=0;" edge="1" parent="41">
                    <mxGeometry x="0.022" y="3" relative="1" as="geometry">
                        <mxPoint x="98.50000000000045" y="247" as="sourcePoint"/>
                        <Array as="points">
                            <mxPoint x="140" y="247"/>
                            <mxPoint x="140" y="259"/>
                        </Array>
                        <mxPoint as="offset"/>
                        <mxPoint x="102.49999999999955" y="259" as="targetPoint"/>
                    </mxGeometry>
                </mxCell>
                <mxCell id="156" value="" style="html=1;points=[];perimeter=orthogonalPerimeter;" vertex="1" parent="41">
                    <mxGeometry x="84.5" y="791" width="10" height="127" as="geometry"/>
                </mxCell>
                <mxCell id="44" value="goToAggiungiPiatto()" style="edgeStyle=orthogonalEdgeStyle;html=1;align=left;spacingLeft=2;endArrow=block;rounded=0;" edge="1" parent="1" source="35" target="45">
                    <mxGeometry x="-0.6516" y="12" relative="1" as="geometry">
                        <mxPoint x="2749" y="699" as="sourcePoint"/>
                        <Array as="points">
                            <mxPoint x="2834" y="765"/>
                            <mxPoint x="2834" y="765"/>
                        </Array>
                        <mxPoint as="offset"/>
                        <mxPoint x="2752.9999999999995" y="711" as="targetPoint"/>
                    </mxGeometry>
                </mxCell>
                <mxCell id="45" value="" style="html=1;points=[];perimeter=orthogonalPerimeter;" vertex="1" parent="1">
                    <mxGeometry x="2914.5" y="764.5" width="10" height="488.5" as="geometry"/>
                </mxCell>
                <mxCell id="49" value="functionFragment: FunctionFragment" style="shape=umlLifeline;perimeter=lifelinePerimeter;whiteSpace=wrap;html=1;container=1;collapsible=0;recursiveResize=0;outlineConnect=0;" vertex="1" parent="1">
                    <mxGeometry x="-1259" y="442" width="126" height="1428" as="geometry"/>
                </mxCell>
                <mxCell id="50" value="" style="html=1;points=[];perimeter=orthogonalPerimeter;" vertex="1" parent="49">
                    <mxGeometry x="58" y="86" width="10" height="55" as="geometry"/>
                </mxCell>
                <mxCell id="52" value="" style="html=1;points=[];perimeter=orthogonalPerimeter;" vertex="1" parent="1">
                    <mxGeometry x="2919" y="793" width="9.5" height="165" as="geometry"/>
                </mxCell>
                <mxCell id="53" value="initialize()&lt;span style=&quot;color: rgba(0, 0, 0, 0); font-family: monospace; font-size: 0px;&quot;&gt;%3CmxGraphModel%3E%3Croot%3E%3CmxCell%20id%3D%220%22%2F%3E%3CmxCell%20id%3D%221%22%20parent%3D%220%22%2F%3E%3CmxCell%20id%3D%222%22%20value%3D%22%22%20style%3D%22html%3D1%3Bpoints%3D%5B%5D%3Bperimeter%3DorthogonalPerimeter%3B%22%20vertex%3D%221%22%20parent%3D%221%22%3E%3CmxGeometry%20x%3D%22191%22%20y%3D%22657%22%20width%3D%2218%22%20height%3D%2216%22%20as%3D%22geometry%22%2F%3E%3C%2FmxCell%3E%3CmxCell%20id%3D%223%22%20value%3D%22changeScene()%22%20style%3D%22edgeStyle%3DorthogonalEdgeStyle%3Bhtml%3D1%3Balign%3Dleft%3BspacingLeft%3D2%3BendArrow%3Dblock%3Brounded%3D0%3BentryX%3D1%3BentryY%3D0%3B%22%20edge%3D%221%22%20target%3D%222%22%20parent%3D%221%22%3E%3CmxGeometry%20x%3D%22-0.4%22%20y%3D%2212%22%20relative%3D%221%22%20as%3D%22geometry%22%3E%3CmxPoint%20x%3D%22205%22%20y%3D%22644.9999999999998%22%20as%3D%22sourcePoint%22%2F%3E%3CArray%20as%3D%22points%22%3E%3CmxPoint%20x%3D%22245%22%20y%3D%22645%22%2F%3E%3CmxPoint%20x%3D%22245%22%20y%3D%22657%22%2F%3E%3C%2FArray%3E%3CmxPoint%20as%3D%22offset%22%2F%3E%3C%2FmxGeometry%3E%3C%2FmxCell%3E%3C%2Froot%3E%3C%2FmxGraphModel%3E&lt;/span&gt;&lt;span style=&quot;color: rgba(0, 0, 0, 0); font-family: monospace; font-size: 0px;&quot;&gt;%3CmxGraphModel%3E%3Croot%3E%3CmxCell%20id%3D%220%22%2F%3E%3CmxCell%20id%3D%221%22%20parent%3D%220%22%2F%3E%3CmxCell%20id%3D%222%22%20value%3D%22%22%20style%3D%22html%3D1%3Bpoints%3D%5B%5D%3Bperimeter%3DorthogonalPerimeter%3B%22%20vertex%3D%221%22%20parent%3D%221%22%3E%3CmxGeometry%20x%3D%22191%22%20y%3D%22657%22%20width%3D%2218%22%20height%3D%2216%22%20as%3D%22geometry%22%2F%3E%3C%2FmxCell%3E%3CmxCell%20id%3D%223%22%20value%3D%22changeScene()%22%20style%3D%22edgeStyle%3DorthogonalEdgeStyle%3Bhtml%3D1%3Balign%3Dleft%3BspacingLeft%3D2%3BendArrow%3Dblock%3Brounded%3D0%3BentryX%3D1%3BentryY%3D0%3B%22%20edge%3D%221%22%20target%3D%222%22%20parent%3D%221%22%3E%3CmxGeometry%20x%3D%22-0.4%22%20y%3D%2212%22%20relative%3D%221%22%20as%3D%22geometry%22%3E%3CmxPoint%20x%3D%22205%22%20y%3D%22644.9999999999998%22%20as%3D%22sourcePoint%22%2F%3E%3CArray%20as%3D%22points%22%3E%3CmxPoint%20x%3D%22245%22%20y%3D%22645%22%2F%3E%3CmxPoint%20x%3D%22245%22%20y%3D%22657%22%2F%3E%3C%2FArray%3E%3CmxPoint%20as%3D%22offset%22%2F%3E%3C%2FmxGeometry%3E%3C%2FmxCell%3E%3C%2Froot%3E%3C%2FmxGraphModel%3&lt;/span&gt;" style="edgeStyle=orthogonalEdgeStyle;html=1;align=left;spacingLeft=2;endArrow=block;rounded=0;entryX=1;entryY=0;" edge="1" parent="1" source="45" target="52">
                    <mxGeometry x="-0.4" y="12" relative="1" as="geometry">
                        <mxPoint x="2926" y="780.9999999999998" as="sourcePoint"/>
                        <Array as="points">
                            <mxPoint x="2966" y="781"/>
                            <mxPoint x="2966" y="793"/>
                        </Array>
                        <mxPoint as="offset"/>
                    </mxGeometry>
                </mxCell>
                <mxCell id="54" value="onClickListener: View.OnClickListener" style="shape=umlLifeline;perimeter=lifelinePerimeter;whiteSpace=wrap;html=1;container=1;collapsible=0;recursiveResize=0;outlineConnect=0;" vertex="1" parent="1">
                    <mxGeometry x="-1115" y="442" width="119" height="1448" as="geometry"/>
                </mxCell>
                <mxCell id="55" value="" style="html=1;points=[];perimeter=orthogonalPerimeter;" vertex="1" parent="54">
                    <mxGeometry x="54.5" y="97.5" width="10" height="46" as="geometry"/>
                </mxCell>
                <mxCell id="56" value="onClick()" style="html=1;verticalAlign=bottom;endArrow=block;entryX=0.137;entryY=0.055;entryDx=0;entryDy=0;entryPerimeter=0;" edge="1" parent="1" source="50" target="55">
                    <mxGeometry width="80" relative="1" as="geometry">
                        <mxPoint x="-1180.9995652173911" y="539.1300000000002" as="sourcePoint"/>
                        <mxPoint x="-967.7800000000001" y="539.1300000000002" as="targetPoint"/>
                    </mxGeometry>
                </mxCell>
                <mxCell id="58" value="" style="html=1;points=[];perimeter=orthogonalPerimeter;" vertex="1" parent="1">
                    <mxGeometry x="2923" y="815" width="10.25" height="120" as="geometry"/>
                </mxCell>
                <mxCell id="59" value="dispensaActivity: DispensaActivity" style="shape=umlLifeline;perimeter=lifelinePerimeter;whiteSpace=wrap;html=1;container=1;collapsible=0;recursiveResize=0;outlineConnect=0;" vertex="1" parent="1">
                    <mxGeometry x="-976" y="441" width="116" height="1538" as="geometry"/>
                </mxCell>
                <mxCell id="60" value="" style="html=1;points=[];perimeter=orthogonalPerimeter;" vertex="1" parent="59">
                    <mxGeometry x="53" y="94.5" width="10" height="87.5" as="geometry"/>
                </mxCell>
                <mxCell id="86" value="" style="html=1;points=[];perimeter=orthogonalPerimeter;" vertex="1" parent="59">
                    <mxGeometry x="53" y="316" width="10" height="211.5" as="geometry"/>
                </mxCell>
                <mxCell id="87" value="" style="html=1;points=[];perimeter=orthogonalPerimeter;" vertex="1" parent="59">
                    <mxGeometry x="59" y="367" width="10" height="87.5" as="geometry"/>
                </mxCell>
                <mxCell id="89" value="creaTextViewNomeProdotto()&lt;br&gt;creaTextViewCategoriaProdotto()&lt;br&gt;creaProgressBar()" style="edgeStyle=orthogonalEdgeStyle;html=1;align=left;spacingLeft=2;endArrow=block;rounded=0;exitX=0.936;exitY=0.138;exitDx=0;exitDy=0;exitPerimeter=0;" edge="1" parent="59" source="86" target="87">
                    <mxGeometry x="0.9581" y="25" relative="1" as="geometry">
                        <mxPoint x="112.5" y="351.5" as="sourcePoint"/>
                        <Array as="points">
                            <mxPoint x="62" y="351"/>
                            <mxPoint x="107" y="351"/>
                            <mxPoint x="107" y="376"/>
                        </Array>
                        <mxPoint x="118" y="375.5" as="targetPoint"/>
                        <mxPoint as="offset"/>
                    </mxGeometry>
                </mxCell>
                <mxCell id="167" value="" style="html=1;points=[];perimeter=orthogonalPerimeter;" vertex="1" parent="59">
                    <mxGeometry x="53" y="1058" width="10" height="130.5" as="geometry"/>
                </mxCell>
                <mxCell id="168" value="" style="html=1;points=[];perimeter=orthogonalPerimeter;" vertex="1" parent="59">
                    <mxGeometry x="53" y="1322.5" width="10" height="211.5" as="geometry"/>
                </mxCell>
                <mxCell id="169" value="" style="html=1;points=[];perimeter=orthogonalPerimeter;" vertex="1" parent="59">
                    <mxGeometry x="59" y="1373.5" width="10" height="87.5" as="geometry"/>
                </mxCell>
                <mxCell id="170" value="creaTextViewNomeProdotto()&lt;br&gt;creaTextViewCategoriaProdotto()&lt;br&gt;creaProgressBar()" style="edgeStyle=orthogonalEdgeStyle;html=1;align=left;spacingLeft=2;endArrow=block;rounded=0;exitX=0.936;exitY=0.138;exitDx=0;exitDy=0;exitPerimeter=0;" edge="1" parent="59" source="168" target="169">
                    <mxGeometry x="0.9581" y="25" relative="1" as="geometry">
                        <mxPoint x="1088.5" y="913" as="sourcePoint"/>
                        <Array as="points">
                            <mxPoint x="62" y="1357.5"/>
                            <mxPoint x="107" y="1357.5"/>
                            <mxPoint x="107" y="1382.5"/>
                        </Array>
                        <mxPoint x="1094" y="937" as="targetPoint"/>
                        <mxPoint as="offset"/>
                    </mxGeometry>
                </mxCell>
                <mxCell id="171" value="getProductFromServer()" style="html=1;verticalAlign=bottom;endArrow=block;" edge="1" parent="59" source="167">
                    <mxGeometry width="80" relative="1" as="geometry">
                        <mxPoint x="156" y="1156.5" as="sourcePoint"/>
                        <mxPoint x="248.49999999999955" y="1172.5" as="targetPoint"/>
                    </mxGeometry>
                </mxCell>
                <mxCell id="173" value="update()" style="html=1;verticalAlign=bottom;endArrow=block;entryX=1.002;entryY=0.141;entryDx=0;entryDy=0;entryPerimeter=0;" edge="1" parent="59" target="168">
                    <mxGeometry width="80" relative="1" as="geometry">
                        <mxPoint x="430.5" y="1352.3215" as="sourcePoint"/>
                        <mxPoint x="173" y="1341.5" as="targetPoint"/>
                    </mxGeometry>
                </mxCell>
                <mxCell id="174" value="&amp;lt;&amp;lt;CREATE&amp;gt;&amp;gt;" style="html=1;verticalAlign=bottom;endArrow=block;" edge="1" parent="59" source="59">
                    <mxGeometry width="80" relative="1" as="geometry">
                        <mxPoint x="-41.5" y="1117.55" as="sourcePoint"/>
                        <mxPoint x="167" y="1114.5" as="targetPoint"/>
                    </mxGeometry>
                </mxCell>
                <mxCell id="61" value="onCreate()" style="html=1;verticalAlign=bottom;endArrow=block;entryX=-0.013;entryY=0.092;entryDx=0;entryDy=0;entryPerimeter=0;" edge="1" parent="1" source="55" target="60">
                    <mxGeometry width="80" relative="1" as="geometry">
                        <mxPoint x="-1021" y="589" as="sourcePoint"/>
                        <mxPoint x="-817" y="546" as="targetPoint"/>
                    </mxGeometry>
                </mxCell>
                <mxCell id="63" value="menuDriver&lt;br&gt;:MenuDriver" style="shape=umlLifeline;perimeter=lifelinePerimeter;whiteSpace=wrap;html=1;container=1;collapsible=0;recursiveResize=0;outlineConnect=0;" vertex="1" parent="1">
                    <mxGeometry x="3520" y="1011" width="130" height="584" as="geometry"/>
                </mxCell>
                <mxCell id="65" value="" style="html=1;points=[];perimeter=orthogonalPerimeter;" vertex="1" parent="63">
                    <mxGeometry x="60" y="64" width="10" height="52" as="geometry"/>
                </mxCell>
                <mxCell id="142" value="" style="html=1;points=[];perimeter=orthogonalPerimeter;" vertex="1" parent="63">
                    <mxGeometry x="60" y="456" width="10" height="54" as="geometry"/>
                </mxCell>
                <mxCell id="69" value="getProductFromServer()" style="html=1;verticalAlign=bottom;endArrow=block;" edge="1" parent="1" source="60" target="68">
                    <mxGeometry width="80" relative="1" as="geometry">
                        <mxPoint x="-820" y="595" as="sourcePoint"/>
                        <mxPoint x="-628" y="595" as="targetPoint"/>
                    </mxGeometry>
                </mxCell>
                <mxCell id="73" value="prodotto : Prodotto" style="shape=umlLifeline;perimeter=lifelinePerimeter;whiteSpace=wrap;html=1;container=1;collapsible=0;recursiveResize=0;outlineConnect=0;" vertex="1" parent="1">
                    <mxGeometry x="-605" y="657.5" width="129" height="278.5" as="geometry"/>
                </mxCell>
                <mxCell id="84" value="" style="html=1;points=[];perimeter=orthogonalPerimeter;" vertex="1" parent="73">
                    <mxGeometry x="59.5" y="49" width="10" height="155" as="geometry"/>
                </mxCell>
                <mxCell id="77" value="&amp;lt;&amp;lt;create&amp;gt;&amp;gt;" style="html=1;verticalAlign=bottom;endArrow=block;" edge="1" parent="1">
                    <mxGeometry width="80" relative="1" as="geometry">
                        <mxPoint x="2924.5" y="1030" as="sourcePoint"/>
                        <mxPoint x="3519" y="1030" as="targetPoint"/>
                    </mxGeometry>
                </mxCell>
                <mxCell id="80" value="creaCategoria(categoria: String)" style="html=1;verticalAlign=bottom;endArrow=block;" edge="1" parent="1" target="65">
                    <mxGeometry width="80" relative="1" as="geometry">
                        <mxPoint x="2924.5" y="1078" as="sourcePoint"/>
                        <mxPoint x="3070" y="1040" as="targetPoint"/>
                        <Array as="points">
                            <mxPoint x="3084" y="1078"/>
                        </Array>
                    </mxGeometry>
                </mxCell>
                <mxCell id="85" value="update()" style="html=1;verticalAlign=bottom;endArrow=block;entryX=1.002;entryY=0.141;entryDx=0;entryDy=0;entryPerimeter=0;" edge="1" parent="1" source="84" target="86">
                    <mxGeometry width="80" relative="1" as="geometry">
                        <mxPoint x="-420" y="754" as="sourcePoint"/>
                        <mxPoint x="-803" y="780" as="targetPoint"/>
                    </mxGeometry>
                </mxCell>
                <mxCell id="93" value="SEQUENCE DIAGRAM CARICAMENTO PRODOTTI IN DISPENSA" style="text;html=1;strokeColor=none;fillColor=none;align=center;verticalAlign=middle;whiteSpace=wrap;rounded=0;fontSize=8;" vertex="1" parent="1">
                    <mxGeometry x="-1392" y="363" width="518" height="30" as="geometry"/>
                </mxCell>
                <mxCell id="103" value="piuOnClickListener: View.OnClickListener" style="shape=umlLifeline;perimeter=lifelinePerimeter;whiteSpace=wrap;html=1;container=1;collapsible=0;recursiveResize=0;outlineConnect=0;" vertex="1" parent="1">
                    <mxGeometry x="-477" y="456" width="165" height="1521" as="geometry"/>
                </mxCell>
                <mxCell id="104" value="" style="html=1;points=[];perimeter=orthogonalPerimeter;" vertex="1" parent="103">
                    <mxGeometry x="77.5" y="665" width="10" height="74" as="geometry"/>
                </mxCell>
                <mxCell id="106" value="creaProdottoActivity: CreaProdottoActivity" style="shape=umlLifeline;perimeter=lifelinePerimeter;whiteSpace=wrap;html=1;container=1;collapsible=0;recursiveResize=0;outlineConnect=0;" vertex="1" parent="1">
                    <mxGeometry x="-290" y="456" width="136" height="1521" as="geometry"/>
                </mxCell>
                <mxCell id="107" value="" style="html=1;points=[];perimeter=orthogonalPerimeter;" vertex="1" parent="106">
                    <mxGeometry x="63" y="691" width="10" height="95" as="geometry"/>
                </mxCell>
                <mxCell id="114" value="" style="html=1;points=[];perimeter=orthogonalPerimeter;" vertex="1" parent="106">
                    <mxGeometry x="70" y="726" width="10" height="52" as="geometry"/>
                </mxCell>
                <mxCell id="115" value="setUpSpinner()" style="edgeStyle=orthogonalEdgeStyle;html=1;align=left;spacingLeft=2;endArrow=block;rounded=0;" edge="1" parent="106">
                    <mxGeometry relative="1" as="geometry">
                        <mxPoint x="73" y="723.02" as="sourcePoint"/>
                        <Array as="points">
                            <mxPoint x="106.5" y="723.02"/>
                            <mxPoint x="106.5" y="747.02"/>
                        </Array>
                        <mxPoint x="78.5" y="747.02" as="targetPoint"/>
                    </mxGeometry>
                </mxCell>
                <mxCell id="130" value="&amp;lt;&amp;lt;CREATE&amp;gt;&amp;gt;" style="html=1;verticalAlign=bottom;endArrow=block;" edge="1" parent="106" source="107">
                    <mxGeometry width="80" relative="1" as="geometry">
                        <mxPoint x="72.99500000000018" y="711.9999999999998" as="sourcePoint"/>
                        <mxPoint x="221" y="709" as="targetPoint"/>
                    </mxGeometry>
                </mxCell>
                <mxCell id="216" value="" style="html=1;points=[];perimeter=orthogonalPerimeter;" vertex="1" parent="106">
                    <mxGeometry x="63" y="945" width="10" height="42" as="geometry"/>
                </mxCell>
                <mxCell id="94" value="loop" style="shape=umlFrame;whiteSpace=wrap;html=1;width=60;height=22;" vertex="1" parent="1">
                    <mxGeometry x="2657" y="852.5" width="579" height="120" as="geometry"/>
                </mxCell>
                <mxCell id="110" value="ComboBox" style="shape=umlLifeline;perimeter=lifelinePerimeter;whiteSpace=wrap;html=1;container=1;collapsible=0;recursiveResize=0;outlineConnect=0;" vertex="1" parent="1">
                    <mxGeometry x="3078" y="852.5" width="139" height="356.5" as="geometry"/>
                </mxCell>
                <mxCell id="111" value="" style="html=1;points=[];perimeter=orthogonalPerimeter;" vertex="1" parent="110">
                    <mxGeometry x="64.5" y="47.25" width="10" height="52" as="geometry"/>
                </mxCell>
                <mxCell id="135" value="" style="html=1;points=[];perimeter=orthogonalPerimeter;" vertex="1" parent="110">
                    <mxGeometry x="64.5" y="289.5" width="10" height="52" as="geometry"/>
                </mxCell>
                <mxCell id="136" value="addItem(newCategoria: String)" style="html=1;verticalAlign=bottom;endArrow=block;" edge="1" parent="110" source="45">
                    <mxGeometry x="0.0485" width="80" relative="1" as="geometry">
                        <mxPoint x="-143" y="296.5" as="sourcePoint"/>
                        <mxPoint x="63" y="296.5" as="targetPoint"/>
                        <mxPoint as="offset"/>
                    </mxGeometry>
                </mxCell>
                <mxCell id="137" value="opt" style="shape=umlFrame;whiteSpace=wrap;html=1;" vertex="1" parent="110">
                    <mxGeometry x="-286" y="265" width="410" height="101" as="geometry"/>
                </mxCell>
                <mxCell id="112" value="onCreate()" style="html=1;verticalAlign=bottom;endArrow=block;exitX=0.533;exitY=0.46;exitDx=0;exitDy=0;exitPerimeter=0;" edge="1" parent="1" source="103" target="107">
                    <mxGeometry width="80" relative="1" as="geometry">
                        <mxPoint x="-372" y="1147" as="sourcePoint"/>
                        <mxPoint x="-172.49999999999955" y="1133" as="targetPoint"/>
                    </mxGeometry>
                </mxCell>
                <mxCell id="113" value="addItem(categoria: String)" style="html=1;verticalAlign=bottom;endArrow=block;" edge="1" parent="1" source="58" target="111">
                    <mxGeometry x="-0.284" y="-1" width="80" relative="1" as="geometry">
                        <mxPoint x="3003" y="903" as="sourcePoint"/>
                        <mxPoint x="3083" y="903" as="targetPoint"/>
                        <mxPoint as="offset"/>
                    </mxGeometry>
                </mxCell>
                <mxCell id="117" value="applicaOnClickListener: View.OnClickListener" style="shape=umlLifeline;perimeter=lifelinePerimeter;whiteSpace=wrap;html=1;container=1;collapsible=0;recursiveResize=0;outlineConnect=0;" vertex="1" parent="1">
                    <mxGeometry x="254" y="454" width="136" height="1521" as="geometry"/>
                </mxCell>
                <mxCell id="122" value="" style="html=1;points=[];perimeter=orthogonalPerimeter;" vertex="1" parent="117">
                    <mxGeometry x="63" y="792" width="10" height="46" as="geometry"/>
                </mxCell>
                <mxCell id="123" value="creaProdottoController: CreaProdottoController" style="shape=umlLifeline;perimeter=lifelinePerimeter;whiteSpace=wrap;html=1;container=1;collapsible=0;recursiveResize=0;outlineConnect=0;" vertex="1" parent="1">
                    <mxGeometry x="-61" y="1143" width="138" height="810" as="geometry"/>
                </mxCell>
                <mxCell id="149" value="opt" style="shape=umlFrame;whiteSpace=wrap;html=1;" vertex="1" parent="123">
                    <mxGeometry x="-51" y="118" width="485" height="191" as="geometry"/>
                </mxCell>
                <mxCell id="134" value="" style="html=1;points=[];perimeter=orthogonalPerimeter;" vertex="1" parent="123">
                    <mxGeometry x="63" y="124" width="10" height="159" as="geometry"/>
                </mxCell>
                <mxCell id="138" value="" style="html=1;points=[];perimeter=orthogonalPerimeter;" vertex="1" parent="123">
                    <mxGeometry x="69" y="193" width="10" height="52" as="geometry"/>
                </mxCell>
                <mxCell id="140" value="serverRequest()" style="edgeStyle=orthogonalEdgeStyle;html=1;align=left;spacingLeft=2;endArrow=block;rounded=0;exitX=1;exitY=0.333;exitDx=0;exitDy=0;exitPerimeter=0;" edge="1" parent="123" source="134">
                    <mxGeometry relative="1" as="geometry">
                        <mxPoint x="73" y="177.01999999999998" as="sourcePoint"/>
                        <Array as="points">
                            <mxPoint x="107" y="177"/>
                            <mxPoint x="107" y="201"/>
                        </Array>
                        <mxPoint x="78.5" y="201.01999999999998" as="targetPoint"/>
                    </mxGeometry>
                </mxCell>
                <mxCell id="152" value="&lt;font style=&quot;font-size: 8px;&quot;&gt;[Fields are not empty]&lt;/font&gt;" style="text;html=1;align=center;verticalAlign=middle;resizable=0;points=[];autosize=1;strokeColor=none;fillColor=none;" vertex="1" parent="123">
                    <mxGeometry x="-51" y="150" width="95" height="26" as="geometry"/>
                </mxCell>
                <mxCell id="125" value="categoria&lt;br&gt;:Categoria" style="shape=umlLifeline;perimeter=lifelinePerimeter;whiteSpace=wrap;html=1;container=1;collapsible=0;recursiveResize=0;outlineConnect=0;" vertex="1" parent="1">
                    <mxGeometry x="3693" y="1073.75" width="130" height="60" as="geometry"/>
                </mxCell>
                <mxCell id="127" value="&amp;lt;&amp;lt;CREATE&amp;gt;&amp;gt;" style="html=1;verticalAlign=bottom;endArrow=block;exitX=1.1;exitY=0.189;exitDx=0;exitDy=0;exitPerimeter=0;" edge="1" parent="1" source="60">
                    <mxGeometry width="80" relative="1" as="geometry">
                        <mxPoint x="-1017.5" y="556.05" as="sourcePoint"/>
                        <mxPoint x="-809" y="553" as="targetPoint"/>
                    </mxGeometry>
                </mxCell>
                <mxCell id="129" value="&amp;lt;&amp;lt;create&amp;gt;&amp;gt;" style="html=1;verticalAlign=bottom;endArrow=block;" edge="1" parent="1" source="65">
                    <mxGeometry width="80" relative="1" as="geometry">
                        <mxPoint x="3403" y="1092" as="sourcePoint"/>
                        <mxPoint x="3691" y="1090" as="targetPoint"/>
                    </mxGeometry>
                </mxCell>
                <mxCell id="132" value="salvaProdotto(nome, descrizione, prezzo, costo, quantita)" style="html=1;verticalAlign=bottom;endArrow=block;" edge="1" parent="1" source="122">
                    <mxGeometry x="-0.0334" y="21" width="80" relative="1" as="geometry">
                        <mxPoint x="-379.05499999999984" y="1165.6599999999999" as="sourcePoint"/>
                        <mxPoint x="12" y="1283" as="targetPoint"/>
                        <mxPoint as="offset"/>
                    </mxGeometry>
                </mxCell>
                <mxCell id="139" value="&lt;font style=&quot;font-size: 8px;&quot;&gt;[flag]&lt;/font&gt;" style="text;html=1;align=center;verticalAlign=middle;resizable=0;points=[];autosize=1;strokeColor=none;fillColor=none;" vertex="1" parent="1">
                    <mxGeometry x="2843" y="1133.75" width="35" height="26" as="geometry"/>
                </mxCell>
                <mxCell id="141" value="flag" style="html=1;verticalAlign=bottom;endArrow=open;dashed=1;endSize=8;" edge="1" parent="1" source="65" target="45">
                    <mxGeometry x="-0.0112" y="-3" relative="1" as="geometry">
                        <mxPoint x="3072" y="1095" as="sourcePoint"/>
                        <mxPoint x="2992" y="1095" as="targetPoint"/>
                        <Array as="points">
                            <mxPoint x="3204" y="1104"/>
                        </Array>
                        <mxPoint as="offset"/>
                    </mxGeometry>
                </mxCell>
                <mxCell id="144" value="backOnClickListener: View.OnClickListener" style="shape=umlLifeline;perimeter=lifelinePerimeter;whiteSpace=wrap;html=1;container=1;collapsible=0;recursiveResize=0;outlineConnect=0;" vertex="1" parent="1">
                    <mxGeometry x="437" y="456" width="136" height="1521" as="geometry"/>
                </mxCell>
                <mxCell id="159" value="" style="html=1;points=[];perimeter=orthogonalPerimeter;" vertex="1" parent="144">
                    <mxGeometry x="63" y="1011" width="10" height="46" as="geometry"/>
                </mxCell>
                <mxCell id="148" value="salvaListener:onClickListener" style="shape=umlLifeline;perimeter=lifelinePerimeter;whiteSpace=wrap;html=1;container=1;collapsible=0;recursiveResize=0;outlineConnect=0;" vertex="1" parent="1">
                    <mxGeometry x="3211" y="1268" width="159" height="118" as="geometry"/>
                </mxCell>
                <mxCell id="154" value="" style="html=1;points=[];perimeter=orthogonalPerimeter;" vertex="1" parent="148">
                    <mxGeometry x="74.5" y="58" width="10" height="47" as="geometry"/>
                </mxCell>
                <mxCell id="153" value="onClick()" style="html=1;verticalAlign=bottom;endArrow=block;" edge="1" parent="1" source="14" target="154">
                    <mxGeometry width="80" relative="1" as="geometry">
                        <mxPoint x="2957" y="1323" as="sourcePoint"/>
                        <mxPoint x="3243" y="1347" as="targetPoint"/>
                    </mxGeometry>
                </mxCell>
                <mxCell id="155" value="creaPiatto(nome: String, descrizione: String, nomeSecondaLingua: String,&lt;br&gt;descrizioneSecondaLingua: String, costo: double, allergeni: String, categoria: String)" style="html=1;verticalAlign=bottom;endArrow=block;" edge="1" parent="1" source="156" target="142">
                    <mxGeometry width="80" relative="1" as="geometry">
                        <mxPoint x="3328" y="1151" as="sourcePoint"/>
                        <mxPoint x="3408" y="1151" as="targetPoint"/>
                        <Array as="points">
                            <mxPoint x="3001" y="1468"/>
                        </Array>
                    </mxGeometry>
                </mxCell>
                <mxCell id="157" value="salvaPiatto()" style="html=1;verticalAlign=bottom;endArrow=block;" edge="1" parent="1" source="154" target="156">
                    <mxGeometry width="80" relative="1" as="geometry">
                        <mxPoint x="3064" y="1369" as="sourcePoint"/>
                        <mxPoint x="3144" y="1369" as="targetPoint"/>
                    </mxGeometry>
                </mxCell>
                <mxCell id="158" value="onClick()" style="html=1;verticalAlign=bottom;endArrow=block;" edge="1" parent="1" source="33">
                    <mxGeometry width="80" relative="1" as="geometry">
                        <mxPoint x="-1632" y="1258" as="sourcePoint"/>
                        <mxPoint x="500" y="1473" as="targetPoint"/>
                    </mxGeometry>
                </mxCell>
                <mxCell id="183" value="dispensaController: DispensaController" style="shape=umlLifeline;perimeter=lifelinePerimeter;whiteSpace=wrap;html=1;container=1;collapsible=0;recursiveResize=0;outlineConnect=0;" vertex="1" parent="1">
                    <mxGeometry x="-802" y="1521" width="166" height="235" as="geometry"/>
                </mxCell>
                <mxCell id="184" value="" style="html=1;points=[];perimeter=orthogonalPerimeter;" vertex="1" parent="183">
                    <mxGeometry x="77.5" y="85" width="10" height="77" as="geometry"/>
                </mxCell>
                <mxCell id="185" value="" style="html=1;points=[];perimeter=orthogonalPerimeter;" vertex="1" parent="183">
                    <mxGeometry x="83" y="105" width="10" height="47" as="geometry"/>
                </mxCell>
                <mxCell id="186" value="serverRequest()" style="edgeStyle=orthogonalEdgeStyle;html=1;align=left;spacingLeft=2;endArrow=block;rounded=0;" edge="1" parent="183" source="184" target="185">
                    <mxGeometry relative="1" as="geometry">
                        <mxPoint x="129" y="132" as="sourcePoint"/>
                        <Array as="points">
                            <mxPoint x="121" y="92"/>
                            <mxPoint x="121" y="116"/>
                        </Array>
                        <mxPoint x="134" y="152" as="targetPoint"/>
                    </mxGeometry>
                </mxCell>
                <mxCell id="187" value="&amp;lt;&amp;lt;CREATE&amp;gt;&amp;gt;" style="html=1;verticalAlign=bottom;endArrow=block;" edge="1" parent="183" source="185">
                    <mxGeometry width="80" relative="1" as="geometry">
                        <mxPoint x="112" y="148.20000000000005" as="sourcePoint"/>
                        <mxPoint x="195" y="145" as="targetPoint"/>
                    </mxGeometry>
                </mxCell>
                <mxCell id="188" value="loop" style="shape=umlFrame;whiteSpace=wrap;html=1;" vertex="1" parent="183">
                    <mxGeometry x="-30" y="126" width="412" height="78" as="geometry"/>
                </mxCell>
                <mxCell id="189" value="&lt;font style=&quot;font-size: 8px;&quot;&gt;[for each prodotto in json]&lt;/font&gt;" style="text;html=1;align=center;verticalAlign=middle;resizable=0;points=[];autosize=1;strokeColor=none;fillColor=none;" vertex="1" parent="183">
                    <mxGeometry x="-30.5" y="158" width="108" height="26" as="geometry"/>
                </mxCell>
                <mxCell id="190" value="prodotto : Prodotto" style="shape=umlLifeline;perimeter=lifelinePerimeter;whiteSpace=wrap;html=1;container=1;collapsible=0;recursiveResize=0;outlineConnect=0;" vertex="1" parent="1">
                    <mxGeometry x="-584" y="1655" width="129" height="248" as="geometry"/>
                </mxCell>
                <mxCell id="191" value="" style="html=1;points=[];perimeter=orthogonalPerimeter;" vertex="1" parent="190">
                    <mxGeometry x="59.5" y="49" width="10" height="155" as="geometry"/>
                </mxCell>
                <mxCell id="193" value="onCreate()" style="html=1;verticalAlign=bottom;endArrow=block;exitX=0.482;exitY=0.686;exitDx=0;exitDy=0;exitPerimeter=0;" edge="1" parent="1" source="144" target="59">
                    <mxGeometry x="-0.007" width="80" relative="1" as="geometry">
                        <mxPoint x="-535.5" y="796.8214999999996" as="sourcePoint"/>
                        <mxPoint x="-902.9799999999996" y="796.8214999999996" as="targetPoint"/>
                        <mxPoint as="offset"/>
                    </mxGeometry>
                </mxCell>
                <mxCell id="194" value="onClick()" style="html=1;verticalAlign=bottom;endArrow=block;" edge="1" parent="1" source="34" target="196">
                    <mxGeometry width="80" relative="1" as="geometry">
                        <mxPoint x="-1629" y="2083" as="sourcePoint"/>
                        <mxPoint x="516.5" y="2083" as="targetPoint"/>
                    </mxGeometry>
                </mxCell>
                <mxCell id="195" value="modificaOnClickListener: View.OnClickListener" style="shape=umlLifeline;perimeter=lifelinePerimeter;whiteSpace=wrap;html=1;container=1;collapsible=0;recursiveResize=0;outlineConnect=0;" vertex="1" parent="1">
                    <mxGeometry x="643" y="456" width="136" height="1884" as="geometry"/>
                </mxCell>
                <mxCell id="196" value="" style="html=1;points=[];perimeter=orthogonalPerimeter;" vertex="1" parent="195">
                    <mxGeometry x="63" y="1606" width="10" height="46" as="geometry"/>
                </mxCell>
                <mxCell id="198" value="modificaProdottoActivity: ModificaProdottoActivity" style="shape=umlLifeline;perimeter=lifelinePerimeter;whiteSpace=wrap;html=1;container=1;collapsible=0;recursiveResize=0;outlineConnect=0;" vertex="1" parent="1">
                    <mxGeometry x="805" y="454" width="136" height="1884" as="geometry"/>
                </mxCell>
                <mxCell id="199" value="" style="html=1;points=[];perimeter=orthogonalPerimeter;" vertex="1" parent="198">
                    <mxGeometry x="63" y="1617" width="10" height="183" as="geometry"/>
                </mxCell>
                <mxCell id="218" value="" style="html=1;points=[];perimeter=orthogonalPerimeter;" vertex="1" parent="198">
                    <mxGeometry x="62.99999999999991" y="1822" width="10" height="42" as="geometry"/>
                </mxCell>
                <mxCell id="219" value="setErrorLabel()" style="html=1;verticalAlign=bottom;endArrow=block;exitX=0.115;exitY=0.867;exitDx=0;exitDy=0;exitPerimeter=0;" edge="1" parent="198" target="218">
                    <mxGeometry width="80" relative="1" as="geometry">
                        <mxPoint x="270" y="1824.853" as="sourcePoint"/>
                        <mxPoint x="154.8499999999999" y="1846" as="targetPoint"/>
                    </mxGeometry>
                </mxCell>
                <mxCell id="201" value="applicaOnClickListener: View.OnClickListener" style="shape=umlLifeline;perimeter=lifelinePerimeter;whiteSpace=wrap;html=1;container=1;collapsible=0;recursiveResize=0;outlineConnect=0;" vertex="1" parent="1">
                    <mxGeometry x="1455" y="454" width="136" height="1884" as="geometry"/>
                </mxCell>
                <mxCell id="202" value="" style="html=1;points=[];perimeter=orthogonalPerimeter;" vertex="1" parent="201">
                    <mxGeometry x="63" y="1702" width="10" height="46" as="geometry"/>
                </mxCell>
                <mxCell id="204" value="modificaProdottoController: ModificaProdottoController" style="shape=umlLifeline;perimeter=lifelinePerimeter;whiteSpace=wrap;html=1;container=1;collapsible=0;recursiveResize=0;outlineConnect=0;" vertex="1" parent="1">
                    <mxGeometry x="1003" y="2078" width="154" height="282" as="geometry"/>
                </mxCell>
                <mxCell id="207" value="" style="html=1;points=[];perimeter=orthogonalPerimeter;" vertex="1" parent="204">
                    <mxGeometry x="72" y="105" width="10" height="104" as="geometry"/>
                </mxCell>
                <mxCell id="214" value="" style="html=1;points=[];perimeter=orthogonalPerimeter;" vertex="1" parent="204">
                    <mxGeometry x="78" y="138" width="10" height="64" as="geometry"/>
                </mxCell>
                <mxCell id="206" value="&amp;lt;&amp;lt;CREATE&amp;gt;&amp;gt;" style="html=1;verticalAlign=bottom;endArrow=block;" edge="1" parent="1" source="199">
                    <mxGeometry width="80" relative="1" as="geometry">
                        <mxPoint x="940.9976190476184" y="2052" as="sourcePoint"/>
                        <mxPoint x="994" y="2101" as="targetPoint"/>
                    </mxGeometry>
                </mxCell>
                <mxCell id="208" value="modificaServerPiattoInfo(nome, descrizione, prezzo, costo, quantita)" style="html=1;verticalAlign=bottom;endArrow=block;exitX=0.019;exitY=0.812;exitDx=0;exitDy=0;exitPerimeter=0;" edge="1" parent="1" source="202" target="207">
                    <mxGeometry width="80" relative="1" as="geometry">
                        <mxPoint x="888" y="2111" as="sourcePoint"/>
                        <mxPoint x="1004" y="2111" as="targetPoint"/>
                    </mxGeometry>
                </mxCell>
                <mxCell id="211" value="&lt;font style=&quot;font-size: 8px;&quot;&gt;[Fields are not empty]&lt;/font&gt;" style="text;html=1;align=center;verticalAlign=middle;resizable=0;points=[];autosize=1;strokeColor=none;fillColor=none;" vertex="1" parent="1">
                    <mxGeometry x="974" y="2177" width="95" height="26" as="geometry"/>
                </mxCell>
                <mxCell id="215" value="serverRequest()" style="edgeStyle=orthogonalEdgeStyle;html=1;align=left;spacingLeft=2;endArrow=block;rounded=0;" edge="1" parent="1">
                    <mxGeometry relative="1" as="geometry">
                        <mxPoint x="1085" y="2207" as="sourcePoint"/>
                        <Array as="points">
                            <mxPoint x="1118.5" y="2207"/>
                            <mxPoint x="1118.5" y="2231"/>
                        </Array>
                        <mxPoint x="1090.5" y="2231" as="targetPoint"/>
                    </mxGeometry>
                </mxCell>
                <mxCell id="217" value="setErrorLabel()" style="html=1;verticalAlign=bottom;endArrow=block;exitX=0.115;exitY=0.867;exitDx=0;exitDy=0;exitPerimeter=0;" edge="1" parent="1" source="134" target="216">
                    <mxGeometry width="80" relative="1" as="geometry">
                        <mxPoint x="-20" y="1426" as="sourcePoint"/>
                        <mxPoint x="-112" y="1426" as="targetPoint"/>
                    </mxGeometry>
                </mxCell>
            </root>
        </mxGraphModel>
    </diagram>
</mxfile>